<svg width="150" height="130" viewBox="0 0 150 130" fill="none" xmlns="http://www.w3.org/2000/svg">
<path d="M134.5 57.5L146.5 57.5L75.7893 128.211L66.3158 118.737L125.854 57.5L134.5 57.5Z" fill="#F34848"/>
<path d="M14 57.5H21.5L85.0337 118.711L75.5602 128.184L3 57.5L14 57.5Z" fill="#F34848"/>
<mask id="path-3-inside-1_45_182" fill="white">
<path d="M85 44.5C85 33.2283 80.5223 22.4183 72.552 14.448C64.5817 6.47767 53.7717 2 42.5 2C31.2283 2 20.4183 6.47766 12.448 14.448C4.47767 22.4183 1.70198e-06 33.2283 0 44.5L20.1277 44.5C20.1277 38.5665 22.4848 32.876 26.6804 28.6804C30.876 24.4848 36.5665 22.1277 42.5 22.1277C48.4335 22.1277 54.124 24.4848 58.3196 28.6804C62.5152 32.876 64.8723 38.5665 64.8723 44.5H85Z"/>
</mask>
<path d="M85 44.5C85 33.2283 80.5223 22.4183 72.552 14.448C64.5817 6.47767 53.7717 2 42.5 2C31.2283 2 20.4183 6.47766 12.448 14.448C4.47767 22.4183 1.70198e-06 33.2283 0 44.5L20.1277 44.5C20.1277 38.5665 22.4848 32.876 26.6804 28.6804C30.876 24.4848 36.5665 22.1277 42.5 22.1277C48.4335 22.1277 54.124 24.4848 58.3196 28.6804C62.5152 32.876 64.8723 38.5665 64.8723 44.5H85Z" stroke="#F34848" stroke-width="30" mask="url(#path-3-inside-1_45_182)"/>
<mask id="path-4-inside-2_45_182" fill="white">
<path d="M150 42.5C150 31.2283 145.522 20.4183 137.552 12.448C129.582 4.47767 118.772 8.5099e-07 107.5 0C96.2283 -8.5099e-07 85.4183 4.47766 77.448 12.448C69.4777 20.4183 65 31.2283 65 42.5L85.1277 42.5C85.1277 36.5665 87.4848 30.876 91.6804 26.6804C95.876 22.4848 101.566 20.1277 107.5 20.1277C113.434 20.1277 119.124 22.4848 123.32 26.6804C127.515 30.876 129.872 36.5665 129.872 42.5H150Z"/>
</mask>
<path d="M150 42.5C150 31.2283 145.522 20.4183 137.552 12.448C129.582 4.47767 118.772 8.5099e-07 107.5 0C96.2283 -8.5099e-07 85.4183 4.47766 77.448 12.448C69.4777 20.4183 65 31.2283 65 42.5L85.1277 42.5C85.1277 36.5665 87.4848 30.876 91.6804 26.6804C95.876 22.4848 101.566 20.1277 107.5 20.1277C113.434 20.1277 119.124 22.4848 123.32 26.6804C127.515 30.876 129.872 36.5665 129.872 42.5H150Z" stroke="#F34848" stroke-width="30" mask="url(#path-4-inside-2_45_182)"/>
</svg>
